<svg width="20" height="20" fill="none" xmlns="http://www.w3.org/2000/svg"><path d="M19.152 1.578c.856.854.856 2.24 0 3.094L17.98 5.848 14.152 2.02 15.328.846a2.187 2.187 0 0 1 3.094 0l.73.732ZM6.734 9.441l6.536-6.537 3.828 3.826-6.54 6.536a2.168 2.168 0 0 1-.855.53l-3.469 1.157c-.37.11-.707.024-.96-.262-.25-.218-.337-.59-.227-.925l1.156-3.47a2.2 2.2 0 0 1 .531-.855ZM7.5 2.465c.691 0 1.25.595 1.25 1.25 0 .726-.559 1.25-1.25 1.25H3.75c-.69 0-1.25.594-1.25 1.25V16.25c0 .691.56 1.25 1.25 1.25h10A1.25 1.25 0 0 0 15 16.25v-3.785c0-.656.559-1.25 1.25-1.25s1.25.594 1.25 1.25v3.785c0 2.07-1.68 3.75-3.75 3.75h-10A3.75 3.75 0 0 1 0 16.25V6.215a3.75 3.75 0 0 1 3.75-3.75H7.5Z" fill="#fff"/></svg>